<svg xmlns="http://www.w3.org/2000/svg" viewBox="0 0 24 24" fill="none" stroke="currentColor" stroke-width="2" stroke-linecap="square" stroke-linejoin="miter">
  <title>Misfits skull mark</title>
  <!-- Cranium + jaw silhouette -->
  <path d="M4 10 L4 7 L8 3 L16 3 L20 7 L20 13 L18 15 L18 18 L15 18 L14 21 L10 21 L9 18 L6 18 L6 15 L4 13 Z"/>
  <!-- Eye sockets -->
  <path d="M7 9 L10 9 L10 12 L7 12 Z"/>
  <path d="M14 9 L17 9 L17 12 L14 12 Z"/>
  <!-- Nose slit -->
  <path d="M11 14 L12 16 L13 14"/>
  <!-- Teeth -->
  <path d="M9 18 L9 20 M12 18 L12 20 M15 18 L15 20"/>
</svg>
